<?xml version="1.0" encoding="UTF-8"?>
<!-- Created with Inkscape (http://www.inkscape.org/) -->
<svg version="1.1" viewBox="0 0 173.13 22.758" xmlns="http://www.w3.org/2000/svg">
  <g transform="translate(-20.987 -125.58)" stroke-width=".26458">
   <title>W3C Accessibility Guidelines</title>
   <path d="m21.069 148.32q-0.08268 0-0.08268-0.0827t0.12402-0.25838q0.09302-0.12402 0.5581-0.53744 0.08268-0.0723 0.14469-0.13435 1.5503-1.4986 2.7802-3.0179 1.757-2.1394 3.452-5.0023 0.91984-1.5503 1.5606-2.8112 0.5271-1.0542 0.8785-2.1394 0.14469-0.48576 0.14469-0.80615 0-0.28939-0.10335-0.45475l-0.01034-0.0103q-0.01033-0.031-0.03101-0.0517-0.11369-0.18604-0.32039-0.24805-0.05168-0.0103-0.28939-0.0103-0.36174 0.031-0.63045 0.19637l-0.40308 0.28939q-0.13436 0.062-0.18604 0.062-0.09302 0-0.09302-0.0723 0-0.12403 0.13436-0.27906 0.3824-0.50643 1.2299-0.8785 0.46509-0.18603 0.79582-0.18603 0.46509 0 0.68213 0.33073 0.1757 0.27905 0.1757 0.63045 0 0.23771-0.09302 0.56844 0.59945-0.5581 0.74414-0.67179 0.93018-0.75448 1.6536-0.75448 0.29972 0 0.56844 0.13436 0.53744 0.28939 0.77515 0.91984 0.09302 0.24805 0.10335 0.48576 1.4573-1.54 2.4805-1.54 0.03101 0 0.05168 0 0.12402 0 0.33073 0.062 0.72347 0.24805 0.97152 1.1059 0.08268 0.28939 0.08268 0.58911 0 0.0413 0 0.0724 0 0.46509-0.22738 0.97151-0.41341 0.96119-1.3333 1.5916-0.64079 0.44442-1.2506 0.44442-0.46509 0-0.69246-0.22738-0.15503-0.1757-0.15503-0.36174 0-0.1757 0.13436-0.37207 0.08268-0.14469 0.22738-0.22737 0.18604-0.12403 0.37207-0.12403 0.15503 0 0.32039 0.093l0.31006 0.25838q0.01034 0 0.02067 0.0103 0.16536 0.093 0.3514 0.093 0.42375 0 0.63045-0.3514 0.36174-0.5271 0.36174-1.1576 0-0.8475-0.56844-1.3333-0.3824-0.27905-0.74414-0.27905t-0.75448 0.31006q-0.34106 0.25838-0.66146 0.74414l-0.73381 1.3332q-0.51676 0.81649-1.2712 1.2609-0.5581 0.33073-1.0542 0.33073-0.77515 0-0.83716-0.54777 0-0.031 0-0.0724 0-0.27905 0.22738-0.48576 0.20671-0.20671 0.45475-0.20671 0.19637 0 0.34106 0.093l0.34106 0.26872 0.02067 0.0103q0.16536 0.0827 0.33073 0.0827 0.1757 0 0.3514-0.0827l0.01033-0.0103q0.10335-0.0517 0.16536-0.12402 0.46509-0.5271 0.46509-1.2609 0-0.45475-0.16536-0.83716-0.24805-0.54777-0.77515-0.74414-0.18604-0.0723-0.37207-0.0723-0.3824 0-0.85783 0.40307-0.72347 0.60978-1.2506 1.664l-0.40308 0.8785q-0.24805 0.50643-0.66146 1.2712-2.5942 4.7646-5.5811 8.1752-1.0232 1.1679-2.4185 2.5011-0.44442 0.40308-0.48576 0.43408l-0.15503 0.093q-0.13436 0.062-0.20671 0.062z" style="font-feature-settings:normal;font-variant-caps:normal;font-variant-ligatures:normal;font-variant-numeric:normal"/>
   <path d="m32.397 140.68q0-0.18603 0.23771-0.59944 0.3824-0.56845 0.7338-1.1576 0.08268-0.10335 0.1757-0.11368 0.20671 0 0.20671 0.19637 0 0.0827-0.04134 0.19637l0.01034-0.031-0.42375 1.3229q-0.03101 0.0723-0.06201 0.14469-0.1757 0.41341-0.44442 0.44442-0.39274 0-0.39274-0.40308z" style="font-feature-settings:normal;font-variant-caps:normal;font-variant-ligatures:normal;font-variant-numeric:normal"/>
   <path d="m31.384 148.32q-0.11369 0-0.11369-0.062 0-0.0723 0.08268-0.23771 0.11369-0.15503 0.60978-0.59945 1.2196-1.0955 2.5632-2.7182 1.9844-2.3564 3.793-5.4157 1.0232-1.726 1.509-2.7182 0.62012-1.2196 0.91984-2.2324 0.15503-0.46509 0.15503-0.79582 0-0.34106-0.15503-0.54777-0.18604-0.25838-0.51676-0.25838-0.48576 0-0.8785 0.34107-0.27905 0.21704-0.41341 0.21704-0.10335 0-0.10335-0.0724 0-0.10335 0.15503-0.28939 0.25838-0.31006 0.72347-0.59944 0.5581-0.37207 1.2299-0.43409 0.03101 0 0.05168 0 0.7028 0 0.83716 0.74414 0.01034 0.0413 0.01034 0.11369 0 0.21704-0.08268 0.6718 0.01034-0.0103 0.73381-0.66146 0.98185-0.77515 1.6847-0.77515 0.04134 0 0.07235 0 0.09302 0 0.18604 0.0207 0.67179 0.13436 0.99219 0.78548 0.16536 0.31006 0.1757 0.66146l0.3824-0.3824q0.21704-0.20671 0.50643-0.42375 0.88884-0.66146 1.54-0.66146 0.34106 0 0.68213 0.18604 0.72347 0.41341 0.72347 1.3953 0 1.0439-1.2092 2.2531-0.05168 0.0517-0.10335 0.10336 0.11369 0 0.22738 0 1.3333 0 1.943-0.34107l0.43408-0.31006q0.11369-0.0517 0.2067-0.0517 0.08268 0 0.08268 0.062 0 0.0103 0 0.0207 0 0.11369-0.12402 0.25838-0.1757 0.23771-0.57878 0.49609-0.93018 0.60979-2.6355 0.60979h-0.39274l-2.8112-0.15503-0.8785-0.0103q-1.2712 0-2.7492 0.1757l-0.49609 0.0827-1.2402 2.1911q-2.6872 4.4752-5.6947 7.5654-0.62012 0.64079-0.94051 0.94052l-0.65112 0.59944q-0.31006 0.23771-0.44442 0.25838zm9.3328-12.268 0.81649-0.11369q0.97152-0.12402 2.1601-0.1757 0.23771 0 0.27905-0.0207 0.2067-0.12402 0.45475-0.54777 0.24805-0.45475 0.24805-0.9095 0-0.7028-0.48576-1.1369-0.34106-0.29972-0.74414-0.29972-0.02067 0-0.05168 0-0.44442 0-1.0129 0.50643-0.03101 0.0207-0.06201 0.0517-0.65112 0.59944-1.2609 1.912-0.16536 0.37207-0.34106 0.73381zm6.5629-3.2039q-0.45475 0-0.9095 0.39274-0.40308 0.33073-0.9095 1.1886-0.41341 0.72347-0.71314 1.0645l-0.23771 0.25839q0.53744 0 2.7078 0.15503h0.22738l0.11369-0.062q0.62012-0.28938 0.85783-1.0232 0.09302-0.29972 0.09302-0.58911 0-0.80615-0.66146-1.2196l-0.01033-0.0103q-0.26872-0.15503-0.55811-0.15503zm-5.519 0.57878v0.0103z" style="font-feature-settings:normal;font-variant-caps:normal;font-variant-ligatures:normal;font-variant-numeric:normal"/>
   <path d="m49.192 133.31q-0.09302 0-0.09302-0.0827 0-0.0413 0.04134-0.10335 0.07235-0.1757 0.29972-0.38241 0.7028-0.63045 1.54-0.79581 0.31006-0.0517 0.71313-0.0517 0.51676 0 1.1886 0.0827l2.4908 0.42375q0.56844 0.0723 1.0439 0.0723 1.0542 0 1.664-0.37207l0.48576-0.36173q0.12402-0.0827 0.22738-0.0827 0.08268 0 0.08268 0.0827 0 0.19637-0.41341 0.54777-1.1782 1.0542-2.7905 1.0542-0.7338 0-1.2092-0.10335-0.26872-0.031-0.26872-0.031-0.05168 0-0.25838 0.0517-0.27905 0.062-0.5581 0.15503-1.3849 0.45475-2.005 1.2816-0.54777 0.74414-0.54777 1.633 0 0.78548 0.39274 1.4469 0.37207 0.59944 1.0025 0.97151 0.89917 0.54777 1.9844 0.54777 1.1782 0 2.0567-0.5271 0.47542-0.29972 0.75448-0.85782 0.14469-0.28939 0.14469-0.53744 0-0.23771-0.23771-0.47542-0.21704-0.24805-0.21704-0.46509 0-0.32039 0.31006-0.55811 0.21704-0.14469 0.43408-0.14469 0.2067 0 0.3824 0.15503 0.16536 0.16536 0.26872 0.7028 0 0.49609-0.41341 1.1886-0.81649 1.3126-2.3048 1.9637-0.98185 0.42375-1.9224 0.42375-1.1679 0-2.1394-0.58911-1.0955-0.6718-1.3643-1.912-0.07235-0.33073-0.07235-0.65112 0-1.3333 1.2299-2.6252 0.47542-0.50643 1.0749-0.9095 0.19637-0.1447 0.80615-0.48576-0.19637-0.0517-1.0439-0.1757-0.60978-0.0724-1.0439-0.0724-0.85783 0-1.1989 0.26872-0.28939 0.21704-0.37207 0.25838-0.09302 0.0413-0.14469 0.0413z" style="font-feature-settings:normal;font-variant-caps:normal;font-variant-ligatures:normal;font-variant-numeric:normal"/>
   <path d="m51.135 140.68q0-0.18603 0.23771-0.59944 0.3824-0.56845 0.7338-1.1576 0.08268-0.10335 0.1757-0.11368 0.20671 0 0.20671 0.19637 0 0.0827-0.04134 0.19637l0.01034-0.031-0.42375 1.3229q-0.03101 0.0723-0.06201 0.14469-0.1757 0.41341-0.44442 0.44442-0.39274 0-0.39274-0.40308zm1.6743 0q0-0.18603 0.23771-0.59944 0.38241-0.56845 0.7338-1.1576 0.08268-0.10335 0.1757-0.11368 0.20671 0 0.20671 0.19637 0 0.0827-0.04134 0.19637l-0.03101 0.093-0.38241 1.1989q-0.03101 0.0723-0.06201 0.14469-0.1757 0.41341-0.44442 0.44442-0.39274 0-0.39274-0.40308z" style="font-feature-settings:normal;font-variant-caps:normal;font-variant-ligatures:normal;font-variant-numeric:normal"/>
   <path d="m53.367 137.66q0-0.18604 0.23771-0.59945 0.3824-0.56844 0.7338-1.1576 0.08268-0.10335 0.1757-0.11369 0.2067 0 0.2067 0.19637 0 0.0827-0.04134 0.19637l-0.03101 0.093-0.3824 1.1989q-0.03101 0.0724-0.06201 0.1447-0.1757 0.41341-0.44442 0.44441-0.39274 0-0.39274-0.40307z" style="font-feature-settings:normal;font-variant-caps:normal;font-variant-ligatures:normal;font-variant-numeric:normal"/>
   <path d="m58.504 133.31q-0.09302 0-0.09302-0.062 0-0.0103 0-0.031 0-0.18604 0.40308-0.5271 0.79582-0.69247 1.726-0.78549 0.03101 0 0.06201 0 0.7028 0 0.80615 0.79582 0.01033 0.0827 0.01033 0.16537 0 0.40307-0.27905 1.1886-0.62012 1.7777-2.1291 4.3512l-0.28939 0.49609q-3.2143 5.426-7.0073 8.878-0.44442 0.41342-0.57878 0.4961h-0.01034l-0.02067 0.0103q-0.09302 0.0517-0.16536 0.0517-0.10335 0-0.10335-0.0724 0-0.2067 0.54777-0.69246 4.2065-3.8757 7.5758-10.149l0.5581-1.0645q0.27905-0.5581 0.60978-1.4366 0.36174-0.90951 0.36174-1.3849 0-0.13436-0.03101-0.23771-0.13436-0.53744-0.64079-0.53744-0.48576 0-0.86816 0.29973-0.29972 0.24804-0.44442 0.24804z" style="font-feature-settings:normal;font-variant-caps:normal;font-variant-ligatures:normal;font-variant-numeric:normal"/>
   <path d="m63.63 128.09q0 0.79582-0.97152 1.9017-0.59945 0.65112-1.3436 1.2299l-2.0257 1.4056q-0.24805 0.1447-0.24805 0.15503l-0.06201 0.0103q-0.08268 0-0.08268-0.062 0-0.0827 0.16536-0.27906 0.1757-0.19637 0.80615-0.58911l0.02067-0.0207 1.3643-0.94051q0.76481-0.56844 1.2196-1.1782 0.44442-0.55811 0.44442-1.0439 0-0.18603-0.07235-0.37207-0.03101-0.0103-0.04134-0.0827-0.28939-0.53743-0.90951-0.53743-0.09302 0-0.18604 0.0207-0.24805 0.0517-0.32039 0.11369-0.14469 0.14469-0.14469 0.45475 0 0.28939 0.20671 0.47542 0.16536 0.1447 0.36174 0.1447 0.06201 0 0.11369-0.0207l0.21704-0.12403 0.08268-0.0207q0.06201 0 0.06201 0.093-0.04134 0.16536-0.33073 0.40308-0.41341 0.33072-0.74414 0.33072-0.21704 0-0.39274-0.13435-0.09302-0.062-0.15503-0.15503-0.15503-0.19637-0.15503-0.44442 0-0.28939 0.19637-0.63045 0.43408-0.74414 1.2092-1.0335 0.32039-0.13436 0.64079-0.13436 0.48576 0 0.81649 0.39274 0.25838 0.28939 0.25838 0.67179z" style="font-feature-settings:normal;font-variant-caps:normal;font-variant-ligatures:normal;font-variant-numeric:normal"/>
   <path d="m67.578 125.71q0.09302 0 0.09302 0.0723 0 0.18604-0.58911 0.73381l-0.02067 0.0103-0.02067 0.0207q-1.4779 1.54-2.5838 4.9299-0.59945 1.9224-0.63045 2.067 0.64079-0.64078 1.3849-1.0955 0.7028-0.45475 1.3436-0.45475 0.79582 0 1.2609 0.66146 0.3514 0.49609 0.3514 1.0852 0 1.3022-1.2609 2.3564-0.88883 0.73381-1.7157 0.73381-0.48576 0-0.69246-0.21705-0.16536-0.1757-0.16536-0.37207 0-0.15502 0.09302-0.32039 0.12402-0.21704 0.33073-0.32039 0.16536-0.0827 0.31006-0.0827 0.18604 0 0.3514 0.11369l0.27905 0.23771q0.03101 0.0103 0.05168 0.0207 0.16536 0.0827 0.3514 0.0827 0.24805 0 0.5271-0.15503 0.34106-0.18604 0.51676-0.80615 0.09302-0.29973 0.09302-0.57878 0-0.76481-0.59945-1.2609-0.42375-0.33072-0.86816-0.33072-0.50643 0-1.1059 0.46508-0.71314 0.5271-1.3022 1.6226l-0.5271 0.97152q-0.3514 0.57878-0.77515 0.82682-0.12402 0.093-0.23771 0.10336-0.10335 0-0.10335-0.0724 0-0.12402 0.24805-0.42375 0.27905-0.27905 0.75448-1.6123l0.99219-3.1419q0.79582-2.3254 1.7983-3.793 0.62012-0.89917 1.4676-1.7053 0.24805-0.24805 0.45475-0.33073 0.08268-0.0413 0.14469-0.0413zm-3.7517 7.8341v0.0103z" style="font-feature-settings:normal;font-variant-caps:normal;font-variant-ligatures:normal;font-variant-numeric:normal"/>
   <path d="m67.836 133.31q-0.12402 0-0.12402-0.0827 0-0.10335 0.12402-0.24805 0.14469-0.2067 0.5581-0.51676 0.68213-0.46509 1.2402-0.46509 0.29972 0 0.50643 0.1447 0.33073 0.2067 0.47542 0.65112 0.14469-0.13436 0.47542-0.36174 0.80615-0.5271 1.4883-0.5271 0.71314 0 0.91984 0.48576 0.06201 0.16537 0.06201 0.41341 0 1.1782-1.664 3.9584-1.819 3.0902-4.5062 5.9635l-0.63045 0.66146-0.8785 0.89917-1.3746 1.2919q-0.39274 0.36173-0.57878 0.46509-0.13436 0.0413-0.19637 0.0413-0.07235 0-0.07235-0.062 0-0.0827 0.11369-0.24805 0.12402-0.16537 0.63045-0.60978l0.05168-0.0517q1.3333-1.1989 2.8835-2.9042 2.1084-2.3564 3.5347-4.7129l0.15503-0.25838 0.07235-0.12402-0.05168-0.0827q-0.56844-0.47543-0.91984-1.881 0.03101 0.1447 0.03101 0.1447t-0.23771-0.98185q-0.22738-0.85783-0.44442-1.1369-0.25838-0.33072-0.62012-0.33072-0.19637 0-0.44442 0.11368l-0.47542 0.3204q-0.05168 0.0207-0.10335 0.031zm4.7956 0.21704q0-0.77514-0.86816-0.77514-0.41341 0-0.79582 0.25838h-0.01034q-0.06201 0.062-0.2067 0.1757 0 0.0413 0.04134 0.15503l0.12402 0.50643q0.28939 1.2196 0.48576 1.602 0.19637 0.39274 0.34106 0.53743 0.45475-0.9095 0.62012-1.3229 0.26872-0.65113 0.26872-1.1369z" style="font-feature-settings:normal;font-variant-caps:normal;font-variant-ligatures:normal;font-variant-numeric:normal"/>
   <path d="m73.304 133.31q-0.09302 0-0.09302-0.062 0-0.0103 0-0.031 0-0.18604 0.40308-0.5271 0.79582-0.69247 1.726-0.78549 0.03101 0 0.06201 0 0.7028 0 0.80615 0.79582 0.01034 0.0827 0.01034 0.16537 0 0.40307-0.27905 1.1886-0.62012 1.7777-2.1291 4.3512l-0.28939 0.49609q-3.2143 5.426-7.0073 8.878-0.44442 0.41342-0.57878 0.4961h-0.01033l-0.02067 0.0103q-0.09302 0.0517-0.16536 0.0517-0.10335 0-0.10335-0.0724 0-0.2067 0.54777-0.69246 4.2065-3.8757 7.5758-10.149l0.5581-1.0645q0.27905-0.5581 0.60978-1.4366 0.36174-0.90951 0.36174-1.3849 0-0.13436-0.03101-0.23771-0.13436-0.53744-0.64079-0.53744-0.48576 0-0.86816 0.29973-0.29972 0.24804-0.44442 0.24804z" style="font-feature-settings:normal;font-variant-caps:normal;font-variant-ligatures:normal;font-variant-numeric:normal"/>
   <path d="m76.797 127.74q0.39274 0 0.39274 0.38241 0 0.21704-0.23771 0.60978l-0.75448 1.1782q-0.08268 0.10336-0.18604 0.10336-0.14469 0-0.1757-0.18604 0-0.0103 0-0.0103 0-0.0827 0.10335-0.36174l0.34106-1.0852q0.21704-0.59945 0.51676-0.63046z" style="font-feature-settings:normal;font-variant-caps:normal;font-variant-ligatures:normal;font-variant-numeric:normal"/>
   <path d="m82.461 133.84q0 0.93017-0.78548 1.7467-1.1472 1.2402-2.6458 1.2402-0.22738 0-0.40308-0.0413-0.83716-0.19637-1.2402-1.0335-0.22738-0.46509-0.22738-0.94052 0-1.3229 1.943-3.8757 1.757-2.3048 4.5269-4.8886 0.32039-0.28939 0.44442-0.37207 0.18604-0.10335 0.24805-0.10335 0.09302 0 0.09302 0.0827 0 0.16537-0.28939 0.45475-2.7389 2.4805-4.5165 4.8783-1.5193 2.0671-1.5193 3.1316 0 0.68213 0.46509 1.2506 0 0.0103 0.01033 0.0103 0.51676 0.58911 1.2712 0.58911 0.31006 0 0.65112-0.0827 0.48576-0.13435 0.69246-0.34106 0.3514-0.34106 0.3514-0.98185 0-0.27905-0.11369-0.45475l-0.32039-0.43409q-0.07235-0.12402-0.07235-0.25838 0-0.40307 0.39274-0.60978 0.14469-0.0827 0.29972-0.0827 0.04134 0 0.09302 0.0103 0.5271 0.0724 0.63045 0.80615 0.02067 0.15503 0.02067 0.29973z" style="font-feature-settings:normal;font-variant-caps:normal;font-variant-ligatures:normal;font-variant-numeric:normal"/>
   <path d="m81.923 133.31q-0.09302 0-0.09302-0.062 0-0.0103 0-0.031 0-0.18604 0.40308-0.5271 0.79582-0.69247 1.726-0.78549 0.03101 0 0.06201 0 0.7028 0 0.80615 0.79582 0.01034 0.0827 0.01034 0.16537 0 0.40307-0.27905 1.1886-0.62012 1.7777-2.1291 4.3512l-0.28939 0.49609q-3.2143 5.426-7.0073 8.878-0.44442 0.41342-0.57878 0.4961h-0.01033l-0.02067 0.0103q-0.09302 0.0517-0.16536 0.0517-0.10335 0-0.10335-0.0724 0-0.2067 0.54777-0.69246 4.2065-3.8757 7.5758-10.149l0.5581-1.0645q0.27905-0.5581 0.60978-1.4366 0.36174-0.90951 0.36174-1.3849 0-0.13436-0.03101-0.23771-0.13436-0.53744-0.64079-0.53744-0.48576 0-0.86816 0.29973-0.29972 0.24804-0.44442 0.24804z" style="font-feature-settings:normal;font-variant-caps:normal;font-variant-ligatures:normal;font-variant-numeric:normal"/>
   <path d="m85.417 127.74q0.39274 0 0.39274 0.38241 0 0.21704-0.23771 0.60978l-0.75448 1.1782q-0.08268 0.10336-0.18604 0.10336-0.14469 0-0.1757-0.18604 0-0.0103 0-0.0103 0-0.0827 0.10335-0.36174l0.34106-1.0852q0.21704-0.59945 0.51676-0.63046z" style="font-feature-settings:normal;font-variant-caps:normal;font-variant-ligatures:normal;font-variant-numeric:normal"/>
   <path d="m89.975 132.73q-1.2919 0-2.0154 0.53743l-0.32039 0.22738q-0.07235 0.0413-0.13436 0.0517-0.14469 0-0.14469-0.093 0-0.1757 0.42375-0.53744 1.1472-0.93017 2.8215-0.93017 0.44442 0 1.788 0.15503 0.62012 0.062 1.4056 0.062 0.45475-0.0103 1.0232-0.0827l0.38241-0.0414h0.01033q0.07235 0.0207 0.07235 0.0827 0 0.12402-0.25838 0.41341-0.05168 0.093-0.09302 0.22737l-0.27905 0.85783q-0.95085 2.6768-1.881 4.3718-1.1576 2.1084-2.9456 4.2168-1.4263 1.726-4.4752 4.5579l-0.56844 0.50643q-0.25838 0.2067-0.42375 0.22737-0.10335 0-0.10335-0.0723 0-0.22738 0.5581-0.68213l2.0877-1.9637q3.0386-3.0386 4.6302-5.6637 0.88884-1.4676 1.7467-3.6794-0.7028 0.60979-1.2299 0.93018-0.71314 0.42375-1.3229 0.42375-0.44442 0-0.83716-0.25839-0.68213-0.43408-0.68213-1.3332 0-1.0852 1.3953-2.3048 0.08268-0.0827 0.18604-0.16536-0.26872-0.0413-0.81649-0.0413zm4.3098 0.12402q-0.78548 0.0827-1.4573 0.0827-0.48576 0-0.9095-0.0413l-0.3514-0.0413q-0.19637 0.11369-0.43408 0.18604-0.67179 0.33072-0.9095 1.0542-0.09302 0.26872-0.09302 0.51677 0 0.60978 0.46509 1.0025 0.39274 0.36174 0.90951 0.36174 0.5271 0 1.1059-0.42375 0.77515-0.57878 1.0955-1.2609 0.05168-0.10336 0.29972-0.8475 0.03101-0.14469 0.27905-0.58911z" style="font-feature-settings:normal;font-variant-caps:normal;font-variant-ligatures:normal;font-variant-numeric:normal"/>
   <path d="m89.82 140.36q0 0.16536-0.29972 0.46509-0.98185 0.88883-1.602 0.88883-0.3824 0-0.57878-0.29972-0.14469-0.20671-0.14469-0.45476 0-0.39274 0.3514-0.89917 0.25838-0.3824 1.1369-1.1369l2.6768-2.4391q0.31006-0.25839 0.48576-0.29973h0.05168q0.07235 0.0103 0.07235 0.0827 0 0.0827-0.10335 0.23772-0.12402 0.16536-0.60978 0.57877l-0.12402 0.11369-2.4495 2.2324q-0.43408 0.39274-0.5271 0.5271-0.15503 0.21704-0.15503 0.43408 0 0.36174 0.28939 0.50643 0.10335 0.0724 0.23771 0.0724 0.24805 0 0.57878-0.28939-0.14469 0.12403-0.14469 0.12403t0.33073-0.28939l0.01034-0.0103q0.03101-0.0207 0.05168-0.0413 0.21704-0.18603 0.38241-0.18603 0.08268 0 0.08268 0.0827z" style="font-feature-settings:normal;font-variant-caps:normal;font-variant-ligatures:normal;font-variant-numeric:normal"/>
   <path d="m94.005 127.11q0.12402-0.15503 0.24805-0.15503 0.10335 0 0.12402 0.12403v0.0517q0 0.093-0.16536 0.38241-0.3514 0.63045-0.76481 1.0645-0.29972 0.3204-0.49609 0.33073-0.05168 0-0.11369-0.0103-0.22738-0.0724-0.22738-0.28939 0-0.15503 0.08268-0.26872 0.04134-0.062 0.37207-0.36173 0.86816-0.75448 0.94051-0.86817zm0.88883 0.031q0.07235-0.1447 0.15503-0.1447 0.10335 0 0.15503 0.11369 0.01033 0.031 0.07235 0.40308 0.06201 0.49609 0.21704 0.91984l0.20671 0.47542 0.02067 0.16537q0 0.23771-0.24805 0.32039-0.04134 0.0103-0.07235 0.0103-0.25838 0-0.43408-0.3824-0.1757-0.40308-0.1757-0.94051 0-0.23771 0.03101-0.4961 0.06201-0.42374 0.07235-0.44441zm-1.3746 2.5528q0-0.16536 0.18604-0.65112l0.56844-1.2712q0.07235-0.16536 0.19637-0.16536 0.11369 0 0.15503 0.13435 0 0.0103 0 0.0207l-0.23771 1.6226q-0.12402 0.73381-0.51676 0.73381-0.22738 0-0.32039-0.25838-0.03101-0.0827-0.03101-0.16537z" style="font-feature-settings:normal;font-variant-caps:normal;font-variant-ligatures:normal;font-variant-numeric:normal"/>
   <path d="m101.04 133.84q0 0.93017-0.78549 1.7467-1.1472 1.2402-2.6458 1.2402-0.22738 0-0.40308-0.0413-0.83716-0.19637-1.2402-1.0335-0.22738-0.46509-0.22738-0.94052 0-1.3229 1.943-3.8757 1.757-2.3048 4.5269-4.8886 0.3204-0.28939 0.44442-0.37207 0.18604-0.10335 0.24805-0.10335 0.093 0 0.093 0.0827 0 0.16537-0.28939 0.45475-2.7389 2.4805-4.5165 4.8783-1.5193 2.0671-1.5193 3.1316 0 0.68213 0.46509 1.2506 0 0.0103 0.01034 0.0103 0.51676 0.58911 1.2712 0.58911 0.31006 0 0.65112-0.0827 0.48576-0.13435 0.69246-0.34106 0.3514-0.34106 0.3514-0.98185 0-0.27905-0.11369-0.45475l-0.32039-0.43409q-0.07235-0.12402-0.07235-0.25838 0-0.40307 0.39274-0.60978 0.1447-0.0827 0.29972-0.0827 0.0413 0 0.093 0.0103 0.5271 0.0724 0.63046 0.80615 0.0207 0.15503 0.0207 0.29973z" style="font-feature-settings:normal;font-variant-caps:normal;font-variant-ligatures:normal;font-variant-numeric:normal"/>
   <path d="m93.974 140.68q0-0.18603 0.23771-0.59944 0.3824-0.56845 0.7338-1.1576 0.08268-0.10335 0.1757-0.11368 0.20671 0 0.20671 0.19637 0 0.0827-0.04134 0.19637l0.01034-0.031-0.42375 1.3229q-0.03101 0.0723-0.06201 0.14469-0.1757 0.41341-0.44442 0.44442-0.39274 0-0.39274-0.40308z" style="font-feature-settings:normal;font-variant-caps:normal;font-variant-ligatures:normal;font-variant-numeric:normal"/>
   <path d="m95.99 130.89q-0.15503 0-0.15503-0.12403 0-0.11369 0.09302-0.2067 0.15503-0.15503 0.8785-0.72347 1.0129-0.78548 2.7285-1.9844l0.71313-0.49609q0.3514-0.23771 0.50643-0.23771 0.16537 0 0.23772 0.16536l0.031 0.1447q-0.0207 0.21704-0.3824 0.45475l-0.0207 0.0207q-0.0827 0.0413-0.11369 0.0724l-0.77515 0.53743q-2.2324 1.5606-3.3693 2.2118-0.25838 0.16537-0.37207 0.16537z" style="font-feature-settings:normal;font-variant-caps:normal;font-variant-ligatures:normal;font-variant-numeric:normal"/>
   <path d="m92.961 148.32q-0.11369 0-0.11369-0.062 0-0.0723 0.08268-0.23771 0.11369-0.15503 0.60978-0.59945 1.2196-1.0955 2.5632-2.7182 1.9844-2.3564 3.793-5.4157 1.0232-1.726 1.509-2.7182 0.62011-1.2196 0.91984-2.2324 0.15503-0.46509 0.15503-0.79582 0-0.34106-0.15503-0.54777-0.18604-0.25838-0.51677-0.25838-0.48576 0-0.8785 0.34107-0.27905 0.21704-0.41341 0.21704-0.10335 0-0.10335-0.0724 0-0.10335 0.15503-0.28939 0.25838-0.31006 0.72347-0.59944 0.5581-0.37207 1.2299-0.43409 0.031 0 0.0517 0 0.7028 0 0.83716 0.74414 0.0103 0.0413 0.0103 0.11369 0 0.21704-0.0827 0.6718 0.0103-0.0103 0.7338-0.66146 0.98185-0.77515 1.6846-0.77515 0.0413 0 0.0724 0 0.093 0 0.18603 0.0207 0.6718 0.13436 0.99219 0.78548 0.16537 0.31006 0.1757 0.66146l0.38241-0.3824q0.21704-0.20671 0.50643-0.42375 0.88883-0.66146 1.54-0.66146 0.34107 0 0.68213 0.18604 0.72347 0.41341 0.72347 1.3953 0 1.0439-1.2092 2.2531-0.0517 0.0517-0.10335 0.10336 0.11369 0 0.22738 0 1.3332 0 1.943-0.34107l0.43408-0.31006q0.11369-0.0517 0.20671-0.0517 0.0827 0 0.0827 0.062 0 0.0103 0 0.0207 0 0.11369-0.12402 0.25838-0.1757 0.23771-0.57878 0.49609-0.93017 0.60979-2.6355 0.60979h-0.39274l-2.8112-0.15503-0.8785-0.0103q-1.2712 0-2.7492 0.1757l-0.49609 0.0827-1.2402 2.1911q-2.6872 4.4752-5.6947 7.5654-0.62012 0.64079-0.94051 0.94052l-0.65112 0.59944q-0.31006 0.23771-0.44442 0.25838zm9.3328-12.268 0.81649-0.11369q0.97152-0.12402 2.1601-0.1757 0.23772 0 0.27906-0.0207 0.2067-0.12402 0.45475-0.54777 0.24805-0.45475 0.24805-0.9095 0-0.7028-0.48576-1.1369-0.34107-0.29972-0.74414-0.29972-0.0207 0-0.0517 0-0.44442 0-1.0129 0.50643-0.031 0.0207-0.062 0.0517-0.65112 0.59944-1.2609 1.912-0.16537 0.37207-0.34107 0.73381zm6.5629-3.2039q-0.45475 0-0.90951 0.39274-0.40307 0.33073-0.9095 1.1886-0.41341 0.72347-0.71314 1.0645l-0.23771 0.25839q0.53744 0 2.7078 0.15503h0.22737l0.11369-0.062q0.62012-0.28938 0.85783-1.0232 0.093-0.29972 0.093-0.58911 0-0.80615-0.66146-1.2196l-0.0103-0.0103q-0.26871-0.15503-0.5581-0.15503zm-5.519 0.57878v0.0103z" style="font-feature-settings:normal;font-variant-caps:normal;font-variant-ligatures:normal;font-variant-numeric:normal"/>
   <path d="m110.77 133.31q-0.093 0-0.093-0.0827 0-0.0413 0.0413-0.10335 0.0724-0.1757 0.29973-0.38241 0.7028-0.63045 1.54-0.79581 0.31006-0.0517 0.71314-0.0517 0.51676 0 1.1886 0.0827l2.4908 0.42375q0.56844 0.0723 1.0439 0.0723 1.0542 0 1.664-0.37207l0.48576-0.36173q0.12403-0.0827 0.22738-0.0827 0.0827 0 0.0827 0.0827 0 0.19637-0.41341 0.54777-1.1782 1.0542-2.7905 1.0542-0.7338 0-1.2092-0.10335-0.26871-0.031-0.26871-0.031-0.0517 0-0.25838 0.0517-0.27906 0.062-0.55811 0.15503-1.3849 0.45475-2.005 1.2816-0.54777 0.74414-0.54777 1.633 0 0.78548 0.39274 1.4469 0.37208 0.59944 1.0025 0.97151 0.89917 0.54777 1.9844 0.54777 1.1782 0 2.0567-0.5271 0.47543-0.29972 0.75448-0.85782 0.14469-0.28939 0.14469-0.53744 0-0.23771-0.23771-0.47542-0.21704-0.24805-0.21704-0.46509 0-0.32039 0.31006-0.55811 0.21704-0.14469 0.43408-0.14469 0.20671 0 0.38241 0.15503 0.16536 0.16536 0.26872 0.7028 0 0.49609-0.41342 1.1886-0.81648 1.3126-2.3048 1.9637-0.98186 0.42375-1.9224 0.42375-1.1679 0-2.1394-0.58911-1.0955-0.6718-1.3643-1.912-0.0724-0.33073-0.0724-0.65112 0-1.3333 1.2299-2.6252 0.47543-0.50643 1.0749-0.9095 0.19637-0.1447 0.80615-0.48576-0.19637-0.0517-1.0439-0.1757-0.60978-0.0724-1.0439-0.0724-0.85783 0-1.1989 0.26872-0.28938 0.21704-0.37207 0.25838-0.093 0.0413-0.14469 0.0413z" style="font-feature-settings:normal;font-variant-caps:normal;font-variant-ligatures:normal;font-variant-numeric:normal"/>
   <path d="m117.76 127.74q0.39274 0 0.39274 0.38241 0 0.21704-0.23771 0.60978l-0.75447 1.1782q-0.0413 0.0517-0.0827 0.0827h-0.0103q-0.0413 0.0207-0.0724 0.0207-0.0103 0-0.0207 0-0.14469 0-0.1757-0.18604 0-0.0103 0-0.0103 0-0.0827 0.10335-0.36174l0.34107-1.0852q0.21704-0.59945 0.51676-0.63046z" style="font-feature-settings:normal;font-variant-caps:normal;font-variant-ligatures:normal;font-variant-numeric:normal"/>
   <path d="m119.99 133.22q0-0.27905 0.81649-0.85783 0.80615-0.48576 1.3332-0.48576 0.48576 0 0.69247 0.3514 0.16536 0.24805 0.16536 0.59945 0 0.0517 0 0.11369 0 0.23771-0.12402 0.63045 0.66146-0.66146 1.4263-1.1369 0.7028-0.43408 1.2402-0.44442 1.1472 0 1.5606 1.0335 0.1447 0.34106 0.1447 0.73381 0 1.0852-0.98186 2.0774l-0.12402 0.12402q-1.0025 0.86817-1.85 0.86817-0.45475 0-0.66145-0.1757-0.19638-0.16537-0.19638-0.39275 0-0.13435 0.062-0.28938 0.10335-0.23771 0.31005-0.3514 0.1757-0.10336 0.34107-0.10336 0.1757 0 0.34106 0.11369l0.3204 0.24805q0.0103 0 0.0207 0.0103 0.1757 0.0827 0.36173 0.0827 0.22738 0 0.48576-0.13436h0.0103l0.12402-0.0827q0.11369-0.093 0.20671-0.26872 0.31005-0.46509 0.31005-0.98185 0-0.28939-0.093-0.55811-0.19637-0.65112-0.77515-0.95085-0.28939-0.14469-0.58911-0.14469-0.0207 0-0.0413 0-0.58911 0-1.3126 0.63045-0.031 0.031-0.13436 0.12403-0.56844 0.53743-0.96118 1.2919l-0.45476 0.97151q-0.10335 0.21705-0.54777 1.0645-2.5321 4.7336-5.6121 8.2476-1.0852 1.2402-2.4495 2.5425-0.63045 0.59944-0.86816 0.59944-0.0827 0-0.0827-0.093 0-0.1757 0.73381-0.81649 0-0.0103 0.0517-0.0517 3.359-3.1316 6.2838-8.0719 0.95085-1.602 1.5296-2.7595 0.58911-1.1576 0.89917-2.1911 0.15503-0.48576 0.15503-0.82682 0-0.31006-0.14469-0.49609-0.11369-0.18604-0.3204-0.24805-0.0517-0.0103-0.28938-0.0103-0.36174 0.031-0.63046 0.19637l-0.40307 0.28939q-0.13436 0.062-0.19637 0.062-0.0827 0-0.0827-0.0827z" style="font-feature-settings:normal;font-variant-caps:normal;font-variant-ligatures:normal;font-variant-numeric:normal"/>
   <path d="m126.32 127.74q0.39274 0 0.39274 0.38241 0 0.21704-0.23771 0.60978l-0.75448 1.1782q-0.0827 0.10336-0.18603 0.10336-0.1447 0-0.1757-0.18604 0-0.0103 0-0.0103 0-0.0827 0.10335-0.36174l0.34106-1.0852q0.21704-0.59945 0.51677-0.63046z" style="font-feature-settings:normal;font-variant-caps:normal;font-variant-ligatures:normal;font-variant-numeric:normal"/>
   <path d="m126.88 133.31q-0.093 0-0.093-0.062 0-0.0103 0-0.031 0-0.18604 0.40307-0.5271 0.79582-0.69247 1.726-0.78549 0.031 0 0.062 0 0.7028 0 0.80615 0.79582 0.0103 0.0827 0.0103 0.16537 0 0.40307-0.27905 1.1886-0.62012 1.7777-2.1291 4.3512l-0.28939 0.49609q-3.2143 5.426-7.0073 8.878-0.44442 0.41342-0.57878 0.4961h-0.0103l-0.0207 0.0103q-0.093 0.0517-0.16537 0.0517-0.10335 0-0.10335-0.0724 0-0.2067 0.54777-0.69246 4.2065-3.8757 7.5758-10.149l0.5581-1.0645q0.27905-0.5581 0.60978-1.4366 0.36174-0.90951 0.36174-1.3849 0-0.13436-0.031-0.23771-0.13436-0.53744-0.64079-0.53744-0.48575 0-0.86816 0.29973-0.29972 0.24804-0.44442 0.24804z" style="font-feature-settings:normal;font-variant-caps:normal;font-variant-ligatures:normal;font-variant-numeric:normal"/>
   <path d="m130.38 127.74q0.39274 0 0.39274 0.38241 0 0.21704-0.23771 0.60978l-0.75448 1.1782q-0.0827 0.10336-0.18603 0.10336-0.1447 0-0.1757-0.18604 0-0.0103 0-0.0103 0-0.0827 0.10335-0.36174l0.34106-1.0852q0.21704-0.59945 0.51677-0.63046z" style="font-feature-settings:normal;font-variant-caps:normal;font-variant-ligatures:normal;font-variant-numeric:normal"/>
   <path d="m133.99 135.26q0-1.2712 1.5193-2.5425-1.85 0-2.5838 0.53744l-0.3514 0.24804q-0.0827 0.0517-0.15503 0.0517l-0.0517-0.0103q-0.062-0.031-0.062-0.093 0-0.11369 0.2067-0.33073l0.031-0.031q0.14469-0.16536 0.43408-0.3514 1.0749-0.75447 2.9869-0.75447 0.0517 0 0.10335 0 0.37207 0 0.94051 0.031l0.90951 0.062q1.664 0.13436 2.9146 0.13436 0.86816 0 2.1911-0.11369 0.18604-0.0207 0.27905-0.0207 0.0827 0.031 0.093 0.031 0.0207 0.0207 0.0207 0.0517 0 0.0827-0.26872 0.41341l-0.093 0.2067-0.27906 0.8785q-0.50643 1.4986-1.2712 3.1729-1.633 3.5553-5.2813 7.307-1.0232 1.0852-2.8319 2.7285-0.50643 0.46509-0.51676 0.46509-0.23771 0.2067-0.40308 0.2067-0.093 0-0.093-0.0723 0-0.22738 0.5581-0.68213 3.2763-2.9869 5.0746-5.271 1.4573-1.8604 2.3874-3.7104 0.28939-0.57877 0.65112-1.4469 0.25838-0.63045 0.27905-0.7028-0.32039 0.28939-0.33073 0.29973-1.0335 0.86816-1.7983 0.86816-0.24804 0-0.49609-0.093-0.19637-0.062-0.33073-0.18603-0.46509-0.3514-0.57877-1.0025-0.54777 0.54778-1.1782 0.90951-0.63045 0.37207-1.1782 0.37207-0.0517 0-0.10335 0-0.18604 0-0.40308-0.0827-0.66146-0.23771-0.86816-0.99219-0.0724-0.23771-0.0724-0.48576zm5.0023-2.3254q-0.29972 0-1.7777-0.12402-0.65112-0.0517-0.69246-0.0517-0.031 0-0.0413 0l-0.21704 0.093-0.23771 0.062-0.0207 0.0103q-0.59945 0.18603-0.9095 0.86816-0.1757 0.38241-0.1757 0.75448 0 0.1757 0.0413 0.3514 0.14469 0.64078 0.68213 0.94051 0.25838 0.13436 0.53743 0.13436 0.3514 0 0.71314-0.19637 0.51676-0.27906 0.82682-0.8475l0.39274-0.89917q0.22738-0.40307 0.58911-0.79581l0.27905-0.28939zm3.4106-0.093-0.83716 0.062h-0.0103q-0.69246 0.0517-1.726 0.0517h-0.21704q-0.0103 0-0.16537 0.093-0.47542 0.27905-0.67179 0.98185-0.0724 0.26872-0.0724 0.51677 0 0.19637 0.0413 0.37207 0.1447 0.59944 0.66146 0.89917 0.25838 0.15503 0.54777 0.15503 0.48576 0 1.0749-0.54777 0.56844-0.53744 0.84749-1.2506l0.31006-0.90951q0.11369-0.2067 0.21704-0.42374zm-1.0645 2.8112h-0.0103z" style="font-feature-settings:normal;font-variant-caps:normal;font-variant-ligatures:normal;font-variant-numeric:normal"/>
   <path d="m143.88 135.07q0-1.2609 1.2402-2.3254 0.0207-0.031 0.0517-0.0517 0.83716-0.7028 1.726-0.7028 0.58911 0 0.75448 0.41341 0.031 0.0724 0.031 0.16537 0.0103 0.0413 0.0103 0.0827 0 0.32039-0.34106 0.5271-0.19638 0.11369-0.38241 0.11369-0.10335 0-0.19637-0.031-0.0827-0.031-0.31006-0.22737h-0.0103q-0.22738-0.18604-0.51677-0.18604-0.34106 0-0.63045 0.22738-0.19637 0.1757-0.36174 0.5581-0.14469 0.36174-0.14469 0.7028 0 0.41341 0.20671 0.80615 0.19637 0.39274 0.5581 0.62012 0.3514 0.20671 0.74414 0.20671t0.89917-0.33073q0.26872-0.18604 0.38241-0.31006 0.32039-0.32039 0.82682-1.1989 0.66146-1.1266 1.2712-1.5503 0.21704-0.13436 0.32039-0.13436 0.0827 0 0.0827 0.0827 0 0.15503-0.44442 0.58911-0.56844 0.65112-0.71314 1.6743-0.031 0.23772-0.031 0.45476 0 0.28938 0.031 0.56844 0.031 0.14469 0.031 0.23771 0 0.0724-0.0207 0.10335-0.1757 0.3514-0.59945 0.59945-0.14469 0.0724-0.22737 0.0724-0.0413 0-0.062-0.0207-0.031-0.0413-0.062-0.34107-0.031-0.27905-0.031-0.50643 0-0.29972 0.0517-0.51676-0.56844 0.58911-1.3332 1.0232-0.63045 0.36174-1.1886 0.36174-0.26871 0-0.5271-0.093-0.7028-0.26872-0.98185-1.0335-0.10335-0.31006-0.10335-0.63045z" style="font-feature-settings:normal;font-variant-caps:normal;font-variant-ligatures:normal;font-variant-numeric:normal"/>
   <path d="m148.89 127.73q0 0.25838-0.58911 1.54l-0.15503 0.3824q-0.062 0.0517-0.19637 0.13436-0.12403 0-0.15503-0.15503 0 0.093 0.062-0.46509 0.13436-1.0645 0.22738-1.4263 0.13435-0.46508 0.47542-0.46508 0.23771 0 0.31006 0.27905 0.0207 0.0827 0.0207 0.1757zm-1.9947 0.27905q0.10335-0.031 0.14469-0.031 0.23771 0 0.41341 0.39274 0.1757 0.40307 0.1757 0.93017 0 0.22738-0.031 0.48576-0.062 0.47542-0.1447 0.55811l-0.0207 0.0207-0.0827 0.0207q-0.13436 0-0.1757-0.28939l-0.031-0.24805q-0.093-0.5581-0.22737-0.9095l-0.19637-0.47543-0.0207-0.15503q0-0.21704 0.19637-0.29972zm2.5528 0.46509q0.36174 0 0.36174 0.31006l-0.0103 0.10335q-0.0413 0.16537-0.39274 0.47542l-0.0517 0.0517q-0.50643 0.42375-0.95085 0.86816-0.12402 0.1447-0.21704 0.1447-0.1447 0-0.1447-0.1447 0-0.10335 0.18604-0.44441 0.32039-0.57878 0.74414-1.0335 0.26872-0.29972 0.47542-0.33073z" style="font-feature-settings:normal;font-variant-caps:normal;font-variant-ligatures:normal;font-variant-numeric:normal"/>
   <path d="m141.68 148.32q-0.0827 0-0.0827-0.0827t0.12402-0.25838q0.093-0.12402 0.55811-0.53744 0.0827-0.0723 0.14469-0.13435 1.5503-1.4986 2.7802-3.0179 1.757-2.1394 3.452-5.0023 0.91984-1.5503 1.5606-2.8112 0.5271-1.0542 0.8785-2.1394 0.14469-0.48576 0.14469-0.80615 0-0.28939-0.10335-0.45475l-0.0103-0.0103q-0.0103-0.031-0.031-0.0517-0.11369-0.18604-0.32039-0.24805-0.0517-0.0103-0.28939-0.0103-0.36174 0.031-0.63046 0.19637l-0.40307 0.28939q-0.13436 0.062-0.18604 0.062-0.093 0-0.093-0.0723 0-0.12403 0.13435-0.27906 0.38241-0.50643 1.2299-0.8785 0.46509-0.18603 0.79582-0.18603 0.46509 0 0.68213 0.33073 0.1757 0.27905 0.1757 0.63045 0 0.23771-0.093 0.56844 0.59945-0.5581 0.74414-0.67179 0.93018-0.75448 1.6536-0.75448 0.29972 0 0.56844 0.13436 0.53743 0.28939 0.77515 0.91984 0.093 0.24805 0.10335 0.48576 1.4573-1.54 2.4805-1.54 0.031 0 0.0517 0 0.12403 0 0.33073 0.062 0.72347 0.24805 0.97152 1.1059 0.0827 0.28939 0.0827 0.58911 0 0.0413 0 0.0724 0 0.46509-0.22737 0.97151-0.41342 0.96119-1.3333 1.5916-0.64078 0.44442-1.2506 0.44442-0.46508 0-0.69246-0.22738-0.15503-0.1757-0.15503-0.36174 0-0.1757 0.13436-0.37207 0.0827-0.14469 0.22738-0.22737 0.18603-0.12403 0.37207-0.12403 0.15503 0 0.32039 0.093l0.31006 0.25838q0.0103 0 0.0207 0.0103 0.16536 0.093 0.3514 0.093 0.42375 0 0.63045-0.3514 0.36174-0.5271 0.36174-1.1576 0-0.8475-0.56844-1.3333-0.38241-0.27905-0.74415-0.27905-0.36173 0-0.75447 0.31006-0.34107 0.25838-0.66146 0.74414l-0.7338 1.3332q-0.51677 0.81649-1.2712 1.2609-0.5581 0.33073-1.0542 0.33073-0.77515 0-0.83716-0.54777 0-0.031 0-0.0724 0-0.27905 0.22737-0.48576 0.20671-0.20671 0.45476-0.20671 0.19637 0 0.34106 0.093l0.34107 0.26872 0.0207 0.0103q0.16536 0.0827 0.33073 0.0827 0.17569 0 0.35139-0.0827l0.0103-0.0103q0.10335-0.0517 0.16536-0.12402 0.46509-0.5271 0.46509-1.2609 0-0.45475-0.16536-0.83716-0.24805-0.54777-0.77515-0.74414-0.18603-0.0723-0.37207-0.0723-0.3824 0-0.85783 0.40307-0.72347 0.60978-1.2506 1.664l-0.40307 0.8785q-0.24805 0.50643-0.66146 1.2712-2.5942 4.7646-5.5811 8.1752-1.0232 1.1679-2.4184 2.5011-0.44442 0.40308-0.48576 0.43408l-0.15503 0.093q-0.13436 0.062-0.20671 0.062z" style="font-feature-settings:normal;font-variant-caps:normal;font-variant-ligatures:normal;font-variant-numeric:normal"/>
   <path d="m159.53 133.31q-0.093 0-0.093-0.0827 0-0.0413 0.0413-0.10335 0.0724-0.1757 0.29972-0.38241 0.7028-0.63045 1.54-0.79581 0.31006-0.0517 0.71314-0.0517 0.51676 0 1.1886 0.0827l2.4908 0.42375q0.56844 0.0723 1.0439 0.0723 1.0542 0 1.664-0.37207l0.48576-0.36173q0.12403-0.0827 0.22738-0.0827 0.0827 0 0.0827 0.0827 0 0.19637-0.41341 0.54777-1.1782 1.0542-2.7905 1.0542-0.7338 0-1.2092-0.10335-0.26871-0.031-0.26871-0.031-0.0517 0-0.25839 0.0517-0.27905 0.062-0.5581 0.15503-1.3849 0.45475-2.005 1.2816-0.54777 0.74414-0.54777 1.633 0 0.78548 0.39274 1.4469 0.37207 0.59944 1.0025 0.97151 0.89917 0.54777 1.9844 0.54777 1.1782 0 2.0567-0.5271 0.47543-0.29972 0.75448-0.85782 0.14469-0.28939 0.14469-0.53744 0-0.23771-0.23771-0.47542-0.21704-0.24805-0.21704-0.46509 0-0.32039 0.31006-0.55811 0.21704-0.14469 0.43408-0.14469 0.20671 0 0.38241 0.15503 0.16536 0.16536 0.26871 0.7028 0 0.49609-0.41341 1.1886-0.81648 1.3126-2.3048 1.9637-0.98185 0.42375-1.9224 0.42375-1.1679 0-2.1394-0.58911-1.0955-0.6718-1.3643-1.912-0.0724-0.33073-0.0724-0.65112 0-1.3333 1.2299-2.6252 0.47542-0.50643 1.0749-0.9095 0.19637-0.1447 0.80615-0.48576-0.19637-0.0517-1.0439-0.1757-0.60978-0.0724-1.0439-0.0724-0.85783 0-1.1989 0.26872-0.28939 0.21704-0.37207 0.25838-0.093 0.0413-0.14469 0.0413z" style="font-feature-settings:normal;font-variant-caps:normal;font-variant-ligatures:normal;font-variant-numeric:normal"/>
   <path d="m170.16 135.07q0-1.2609 1.2402-2.3254 0.0207-0.031 0.0517-0.0517 0.83716-0.7028 1.726-0.7028 0.58911 0 0.75447 0.41341 0.031 0.0724 0.031 0.16537 0.0103 0.0413 0.0103 0.0827 0 0.32039-0.34106 0.5271-0.19637 0.11369-0.38241 0.11369-0.10335 0-0.19637-0.031-0.0827-0.031-0.31006-0.22737h-0.0103q-0.22738-0.18604-0.51677-0.18604-0.34106 0-0.63045 0.22738-0.19637 0.1757-0.36173 0.5581-0.1447 0.36174-0.1447 0.7028 0 0.41341 0.20671 0.80615 0.19637 0.39274 0.5581 0.62012 0.3514 0.20671 0.74414 0.20671 0.39275 0 0.89917-0.33073 0.26872-0.18604 0.38241-0.31006 0.32039-0.32039 0.82682-1.1989 0.66146-1.1266 1.2712-1.5503 0.21704-0.13436 0.3204-0.13436 0.0827 0 0.0827 0.0827 0 0.15503-0.44442 0.58911-0.56844 0.65112-0.71313 1.6743-0.031 0.23772-0.031 0.45476 0 0.28938 0.031 0.56844 0.031 0.14469 0.031 0.23771 0 0.0724-0.0207 0.10335-0.1757 0.3514-0.59944 0.59945-0.1447 0.0724-0.22738 0.0724-0.0413 0-0.062-0.0207-0.031-0.0413-0.062-0.34107-0.031-0.27905-0.031-0.50643 0-0.29972 0.0517-0.51676-0.56844 0.58911-1.3333 1.0232-0.63045 0.36174-1.1886 0.36174-0.26872 0-0.5271-0.093-0.7028-0.26872-0.98185-1.0335-0.10336-0.31006-0.10336-0.63045z" style="font-feature-settings:normal;font-variant-caps:normal;font-variant-ligatures:normal;font-variant-numeric:normal"/>
   <path d="m175.16 127.73q0 0.25838-0.58911 1.54l-0.15503 0.3824q-0.062 0.0517-0.19637 0.13436-0.12402 0-0.15503-0.15503 0 0.093 0.062-0.46509 0.13436-1.0645 0.22738-1.4263 0.13436-0.46508 0.47542-0.46508 0.23771 0 0.31006 0.27905 0.0207 0.0827 0.0207 0.1757zm-1.9947 0.27905q0.10335-0.031 0.14469-0.031 0.23772 0 0.41342 0.39274 0.1757 0.40307 0.1757 0.93017 0 0.22738-0.031 0.48576-0.062 0.47542-0.14469 0.55811l-0.0207 0.0207-0.0827 0.0207q-0.13436 0-0.1757-0.28939l-0.031-0.24805q-0.093-0.5581-0.22738-0.9095l-0.19637-0.47543-0.0207-0.15503q0-0.21704 0.19637-0.29972zm2.5528 0.46509q0.36173 0 0.36173 0.31006l-0.0103 0.10335q-0.0413 0.16537-0.39274 0.47542l-0.0517 0.0517q-0.50643 0.42375-0.95085 0.86816-0.12402 0.1447-0.21704 0.1447-0.14469 0-0.14469-0.1447 0-0.10335 0.18603-0.44441 0.3204-0.57878 0.74414-1.0335 0.26872-0.29972 0.47543-0.33073z" style="font-feature-settings:normal;font-variant-caps:normal;font-variant-ligatures:normal;font-variant-numeric:normal"/>
   <path d="m176.83 132.76q-0.37207 0-0.71314 0.19637l-0.42374 0.29973q-0.0827 0.0413-0.16537 0.0517-0.093 0-0.093-0.093 0.0103-0.0207 0.0103-0.0517 0.0724-0.20671 0.45475-0.5271 0.86817-0.73381 1.726-0.73381 0.56845 0 0.75448 0.51677v0.0103q0.062 0.18604 0.062 0.41342 0 0.0517 0 0.11368 0 0.0827-0.0517 0.41341 0.3514-0.3824 0.72347-0.65112 0.9095-0.72347 1.6123-0.72347 0.77515 0 1.2402 0.83716 0.19637 0.41341 0.19637 0.7028 1.4883-1.5503 2.4495-1.5503 0.22737 0 0.42374 0.0827 0.68213 0.22738 0.95085 1.0232 0.10335 0.31006 0.10335 0.63045 0 1.2402-1.1265 2.2944-0.44442 0.44442-0.99219 0.68213-0.36173 0.15503-0.68213 0.15503-0.29972 0-0.5581-0.13436-0.0827-0.031-0.15503-0.11369-0.1447-0.1757-0.1447-0.36174 0-0.1757 0.13436-0.37207 0.22738-0.3514 0.58911-0.3514 0.13436 0 0.25838 0.062h0.0103q0.0413 0.0207 0.0724 0.0413l0.28938 0.23771q0.093 0.093 0.38241 0.093 0.13436 0 0.28939-0.0413 0.34106-0.11369 0.56844-0.73381 0.14469-0.37207 0.14469-0.73381 0-0.40307-0.18603-0.78548-0.10335-0.22737-0.26872-0.39274l-0.11369-0.11369q-0.37207-0.29972-0.74414-0.29972-0.86816 0-1.7363 1.602-0.44441 0.83716-0.66145 1.1162-0.68213 0.88884-1.5193 1.1679-0.28939 0.093-0.55811 0.093-0.5271 0-0.7338-0.23772-0.13436-0.16536-0.13436-0.3514 0-0.1757 0.11369-0.36173 0.21704-0.36174 0.59944-0.36174 0.1757 0 0.36174 0.11369l0.25838 0.21704q0.0103 0 0.0207 0.0103 0.18604 0.11369 0.38241 0.11369 0.25838 0 0.45475-0.15503 0.1757-0.12403 0.36173-0.53744 0.18604-0.42374 0.18604-0.82682 0-0.42375-0.22738-0.8785-0.0103-0.0103-0.0103-0.0207-0.093-0.16536-0.22738-0.29972-0.3824-0.40308-0.83716-0.40308-0.21704 0-0.42374 0.0827-0.1757 0.062-0.50643 0.3514-0.53744 0.44442-1.2816 1.881-0.3824 0.68213-0.44441 0.77515-0.3514 0.49609-0.7028 0.74414-0.22738 0.1447-0.34107 0.1447-0.0724 0-0.0724-0.062 0-0.13435 0.3204-0.49609 0.10335-0.11369 0.27905-0.45475 0.45475-0.86817 0.67179-1.7673 0.062-0.25838 0.062-0.47542 0-0.27905-0.11369-0.48576-0.19637-0.33073-0.56844-0.33073zm1.5606 0.60978h-0.0103z" style="font-feature-settings:normal;font-variant-caps:normal;font-variant-ligatures:normal;font-variant-numeric:normal"/>
   <path d="m186.98 141.45-0.46508 0.031q-0.68213 0-1.2092-0.34106-0.85783-0.58911-0.85783-1.5813 0-0.89917 1.0232-1.9224 0.7028-0.7028 1.54-1.1059-0.50643-0.50643-0.50643-1.2506 0-0.68213 0.43408-1.571l0.0827-0.1757q0.5271-1.0439 1.7157-2.5838 1.3022-1.695 2.8319-3.2039 1.8707-1.912 2.3048-2.1291 0.11369-0.0413 0.16536-0.0413 0.0724 0 0.0724 0.0827 0 0.1757-0.29972 0.44442-3.235 2.9662-5.054 5.55-1.0955 1.5503-1.2816 2.4805-0.0517 0.2067-0.0517 0.3514 0 0.0207 0 0.031 0 0.69247 0.40308 1.1266 0.31006 0.33073 0.78548 0.33073 0.3514 0 0.68213-0.1757l0.34106-0.24805q0.13436-0.0827 0.20671-0.0827 0.0827 0 0.093 0.10335-0.0207 0.14469-0.23772 0.36174-0.59944 0.66145-1.4779 0.85782l-0.53744 0.0827q-0.33073 0.0827-0.48576 0.14469-1.819 0.64079-1.819 1.85 0 0.8785 0.75448 1.3953 0.51676 0.37207 1.1679 0.37207 0.59944 0 1.1472-0.24805 0.16537-0.0827 0.19637-0.11368 0.1757-0.18604 0.1757-0.60979 0-0.26871-0.12402-0.44441l-0.27905-0.34107-0.0103-0.0103q-0.093-0.13436-0.093-0.31006 0-0.45475 0.42374-0.64079 0.15503-0.0724 0.28939-0.0724t0.25838 0.062q0.33073 0.14469 0.44442 0.72347 0.0207 0.14469 0.0207 0.28938 0 0.7028-0.56844 1.3436-0.8785 1.0025-2.2014 1.1886z" style="font-feature-settings:normal;font-variant-caps:normal;font-variant-ligatures:normal;font-variant-numeric:normal"/>
  </g>
</svg>
